<svg width="52" height="52" viewBox="0 0 52 52" fill="none" xmlns="http://www.w3.org/2000/svg">
<path d="M51.2265 10.6968C49.4173 11.4985 47.4738 12.0402 45.4307 12.285C47.5388 11.0236 49.116 9.03818 49.868 6.69934C47.8873 7.87581 45.7196 8.70393 43.459 9.14767C41.9388 7.52455 39.9253 6.44871 37.731 6.0872C35.5368 5.72568 33.2845 6.09872 31.324 7.14839C29.3635 8.19805 27.8043 9.86562 26.8887 11.8922C25.973 13.9188 25.752 16.191 26.26 18.356C22.2466 18.1545 18.3205 17.1114 14.7364 15.2943C11.1523 13.4772 7.99031 10.9269 5.45565 7.80867C4.58898 9.30367 4.09065 11.037 4.09065 12.883C4.08968 14.5448 4.49892 16.1812 5.28206 17.6469C6.06519 19.1127 7.198 20.3624 8.57999 21.2853C6.97725 21.2343 5.40988 20.8013 4.00832 20.0222V20.1522C4.00816 22.4829 4.81439 24.742 6.29021 26.546C7.76604 28.35 9.82056 29.5879 12.1052 30.0495C10.6183 30.4519 9.05955 30.5112 7.54648 30.2228C8.19106 32.2283 9.44664 33.9821 11.1374 35.2385C12.8283 36.495 14.8696 37.1912 16.9758 37.2298C13.4005 40.0366 8.98491 41.559 4.43948 41.5523C3.63431 41.5526 2.82982 41.5055 2.03015 41.4115C6.64402 44.3781 12.0149 45.9524 17.5002 45.9463C36.0685 45.9463 46.2193 30.5673 46.2193 17.2293C46.2193 16.796 46.2085 16.3583 46.189 15.925C48.1635 14.4971 49.8678 12.7289 51.2222 10.7033L51.2265 10.6968Z" fill="#D9D9D9"/>
</svg>
